<svg id="Capa_1" enable-background="new 0 0 512 512" height="512" viewBox="0 0 512 512" width="512" xmlns="http://www.w3.org/2000/svg"><g><path d="m0 256c0-141.2 114.316-255.7 255.446-255.999 140.843-.299 254.853 112.037 256.536 252.87.961 80.471-35.212 152.526-92.455 200.102-2.528 2.101-6.163 2.219-8.815.276-42.356-31.031-94.607-49.354-151.137-49.354-57.436 0-110.454 18.915-153.166 50.856-3.58 2.677-8.525 2.646-11.991-.178-57.618-46.941-94.418-118.46-94.418-198.573z" fill="#f44545"/><path d="m491.263 232.719c0 114.043-92.45 206.493-206.493 206.493s-206.493-92.45-206.493-206.493 92.45-206.493 206.493-206.493 206.493 92.45 206.493 206.493z" fill="#fb5858"/><path d="m349.571 272.057c0 92.471-24.878 174.166-62.9 223.325-4.511 5.833-34.676 16.595-36.671 16.549-59.207-1.362-113.447-22.825-156.161-57.83-23.424-48.212-37.683-112.04-37.683-182.044 0-102.264 30.427-191.349 75.408-237.823 21.108-21.809 45.422-34.234 71.3-34.234s50.191 12.425 71.299 34.234c44.981 46.474 75.408 135.559 75.408 237.823z" fill="#ffcd71"/><path d="m146.698 487.559c-19.023-8.995-36.759-20.264-52.858-33.458-23.424-48.212-37.683-112.04-37.683-182.044 0-102.264 30.427-191.349 75.408-237.823 21.107-21.809 45.421-34.234 71.299-34.234 3.413 0 6.799.216 10.154.642-8.157 5.938-15.989 13.351-23.423 22.088-44.981 52.867-75.408 154.205-75.408 270.535.001 73.589 12.177 141.178 32.511 194.294z" fill="#ffc14f"/><path d="m160.125 57.908c0-8.875 19.135-16.069 42.739-16.069s42.739 7.194 42.739 16.069-19.135 16.068-42.739 16.068-42.739-7.194-42.739-16.068zm42.739 161.827c-54.381 0-98.465 15.599-98.465 34.84s44.084 34.84 98.465 34.84 98.465-15.599 98.465-34.84-44.084-34.84-98.465-34.84zm0-47.105c45.631 0 82.622-12.229 82.622-27.315s-36.992-27.315-82.622-27.315c-45.631 0-82.622 12.229-82.622 27.315s36.991 27.315 82.622 27.315zm0 262.224c-23.604 0-42.739 7.194-42.739 16.068s19.135 16.069 42.739 16.069 42.739-7.194 42.739-16.069-19.135-16.068-42.739-16.068zm0-98.334c-45.631 0-82.622 12.229-82.622 27.315s36.991 27.315 82.622 27.315 82.622-12.229 82.622-27.315-36.992-27.315-82.622-27.315z" fill="#ffc14f"/><path d="m120.242 145.315c0-10.64 18.401-19.859 45.257-24.369-9.492 6.89-15.068 15.296-15.068 24.369s5.576 17.479 15.068 24.369c-26.856-4.51-45.257-13.729-45.257-24.369zm70.072-87.407c0-6.038 3.369-11.596 9.024-16.015-21.954.674-39.213 7.586-39.213 16.015s17.258 15.34 39.212 16.014c-5.654-4.418-9.023-9.976-9.023-16.014zm-55.727 196.667c0-10.837 5.704-20.937 15.539-29.427-27.488 6.18-45.728 17.05-45.728 29.427s18.24 23.247 45.728 29.427c-9.835-8.49-15.539-18.589-15.539-29.427zm61.2 180.498c-20.236 1.268-35.662 7.881-35.662 15.849s15.426 14.582 35.663 15.85c-3.485-4.684-5.474-10.091-5.474-15.85 0-5.758 1.988-11.165 5.473-15.849zm-45.356-71.238c0-8.911 5.012-17.201 13.621-24.12-26.068 4.594-43.811 13.672-43.811 24.12s17.743 19.525 43.811 24.12c-8.609-6.919-13.621-15.209-13.621-24.12z" fill="#ffa90b"/><path d="m68.656 349.02c0 6.904-5.596 12.5-12.5 12.5s-12.5-5.596-12.5-12.5 5.596-12.5 12.5-12.5 12.5 5.596 12.5 12.5zm13.713-62.535c-5.389 0-9.757 4.368-9.757 9.757s4.368 9.758 9.757 9.758 9.757-4.368 9.757-9.757-4.368-9.758-9.757-9.758zm-28.955 114.451c-5.389 0-9.757 4.368-9.757 9.757s4.368 9.757 9.757 9.757 9.757-4.368 9.757-9.757c0-5.388-4.368-9.757-9.757-9.757z" fill="#ffcd71"/><path d="m420 305c0 14.461-3.611 28.079-9.981 40 6.37 11.921 9.981 25.539 9.981 40v67.579c-9.723 8.121-20.058 15.533-30.925 22.159-2.367 1.443-4.759-5.07-7.176-3.702-37.175 21.038-80.135 33.046-125.899 33.046-2.005 0-4.006-.023-6-.069v-119.013c0-14.461 3.611-28.079 9.981-40-6.37-11.921-9.981-25.539-9.981-40v-90c0-34.467 20.515-64.143 50-77.482v-37.518h70v37.518c29.485 13.34 50 43.015 50 77.482z" fill="#6e9e50"/><path d="m285.727 505.831c0 2.566-1.958 4.693-4.511 4.942-8.295.811-16.707 1.227-25.216 1.227-2.005 0-4.006-.023-6-.069v-126.931c0-14.461 3.611-28.079 9.981-40-6.37-11.921-9.981-25.539-9.981-40v-90c0-34.467 20.515-64.143 50-77.482v-37.518h35.727v37.518c-29.485 13.34-50 43.015-50 77.482v90c0 14.461 3.611 28.079 9.981 40-6.37 11.921-9.981 25.539-9.981 40z" fill="#5e8745"/><path d="m240 195c0-8.284 6.716-15 15-15h160c8.284 0 15 6.716 15 15s-6.716 15-15 15h-160c-8.284 0-15-6.716-15-15zm175 40h-160c-8.284 0-15 6.716-15 15s6.716 15 15 15h160c8.284 0 15-6.716 15-15s-6.716-15-15-15zm0 55h-160c-8.284 0-15 6.716-15 15s6.716 15 15 15h160c8.284 0 15-6.716 15-15s-6.716-15-15-15z" fill="#6e9e50"/><path d="m415 210h-130c-8.284 0-15-6.716-15-15s6.716-15 15-15h130c8.284 0 15 6.716 15 15s-6.716 15-15 15zm0 25h-40c-8.284 0-15 6.716-15 15s6.716 15 15 15h40c8.284 0 15-6.716 15-15s-6.716-15-15-15zm0 55h-40c-8.284 0-15 6.716-15 15s6.716 15 15 15h40c8.284 0 15-6.716 15-15s-6.716-15-15-15z" fill="#88b56c"/><path d="m337.426 95v20c0 2.761-2.239 5-5 5h-32.426c-2.761 0-5-2.239-5-5v-20c0-2.761 2.239-5 5-5h32.426c2.761 0 5 2.239 5 5z" fill="#55a4f9"/><path d="m375 95v20c0 2.761-2.239 5-5 5h-40.511c-2.761 0-5-2.239-5-5v-20c0-2.761 2.239-5 5-5h40.511c2.761 0 5 2.239 5 5z" fill="#76b6fa"/><path d="m389.074 250v224.737c-32.087 19.563-68.816 32.264-108.149 36.064v-260.801z" fill="#76b6fa"/><g fill="#a7d0fc"><path d="m400 305c0 8.284-6.716 15-15 15h-100c-8.284 0-15-6.716-15-15s6.716-15 15-15h100c8.284 0 15 6.716 15 15zm-115-40h100c8.284 0 15-6.716 15-15s-6.716-15-15-15h-100c-8.284 0-15 6.716-15 15s6.716 15 15 15z"/><path d="m320.844 397.773c0 5.389-4.368 9.757-9.757 9.757s-9.757-4.368-9.757-9.757 4.368-9.757 9.757-9.757 9.757 4.369 9.757 9.757zm31.03-54.368c-6.904 0-12.5 5.596-12.5 12.5s5.596 12.5 12.5 12.5 12.5-5.596 12.5-12.5-5.597-12.5-12.5-12.5zm3 81.461c-5.389 0-9.757 4.368-9.757 9.757s4.368 9.757 9.757 9.757 9.757-4.368 9.757-9.757c0-5.388-4.369-9.757-9.757-9.757z"/></g></g></svg>